0
SECTION
2
HEADER
9
$ACADVER
1
AC1015
0
ENDSEC
0
SECTION
2
ENTITIES
0
LINE
5
10
8
GEOMETRY
10
0.0
20
0.0
30
0.0
11
10.0
21
20.0
31
0.0
0
CIRCLE
5
11
8
GEOMETRY
10
5.0
20
5.0
30
0.0
40
2.5
0
ARC
5
12
8
GEOMETRY
10
10.0
20
10.0
30
0.0
40
3.0
50
0.0
51
90.0
0
LWPOLYLINE
5
13
8
GEOMETRY
90
3
70
1
10
0.0
20
0.0
10
1.0
20
0.0
10
1.0
20
1.0
0
TEXT
5
14
8
ANNOTATION
10
2.0
20
3.0
30
0.0
40
0.5
1
Hello CAD
50
0.25
0
MTEXT
5
15
8
ANNOTATION
10
4.0
20
5.0
30
0.0
40
0.75
1
Unsupported projection
0
ENDSEC
0
EOF
